<svg width="494" height="453" viewBox="0 0 494 453" fill="none" xmlns="http://www.w3.org/2000/svg">
<path d="M491 424.688C491 308.626 491 250.596 475.158 203.801C445.195 115.295 375.705 45.8049 287.199 15.8422C240.404 0 182.374 0 66.3125 0H28.3125C20.5751 0 16.7064 0 13.5867 1.05614C7.68636 3.05366 3.05366 7.68636 1.05614 13.5867C0 16.7064 0 20.5751 0 28.3125V28.3125C0 144.374 0 202.404 15.8422 249.199C45.8049 337.705 115.295 407.195 203.801 437.158C250.596 453 308.626 453 424.687 453H462.688C470.425 453 474.294 453 477.413 451.944C483.314 449.946 487.946 445.314 489.944 439.413C491 436.294 491 432.425 491 424.688V424.688Z" fill="#FFCF3C"/>
<path d="M394.5 194C449.452 194 494 149.452 494 94.5L494 7.75999C494 5.1859 494 3.89885 493.537 2.89957C493.04 1.8241 492.176 0.960427 491.1 0.462578C490.101 -4.64933e-08 488.814 -6.18412e-08 486.24 -9.25371e-08L392 -1.21634e-06C338.428 -1.85517e-06 295 43.4284 295 97V97C295 150.572 338.428 194 392 194L394.5 194Z" fill="#2DBC7C"/>
</svg>
