<svg width="26" height="26" viewBox="0 0 26 26" fill="none" xmlns="http://www.w3.org/2000/svg">
<g clip-path="url(#clip0_7_100)">
<path d="M23.5515 24.4579V12.7245L24.9204 14.0934L25.9977 13.0162L22.697 9.71554V2.04574H18.1267V5.14528L13 0.0185547L0.00233594 13.0162L1.07956 14.0934L2.44852 12.7245V24.4579H0V25.9814H26V24.4579H23.5515ZM19.6502 3.56918H21.1736V8.19215L19.6502 6.66872V3.56918ZM3.97196 11.201L13 2.173L22.028 11.201V24.4579H3.97196V11.201Z" fill="#513CF3"/>
<path d="M15.2852 8.58984C15.2852 7.32981 14.26 6.30469 13 6.30469C11.74 6.30469 10.7148 7.32981 10.7148 8.58984C10.7148 9.84988 11.74 10.875 13 10.875C14.26 10.875 15.2852 9.84993 15.2852 8.58984ZM13 9.35156C12.58 9.35156 12.2383 9.00986 12.2383 8.58984C12.2383 8.16983 12.58 7.82812 13 7.82812C13.42 7.82812 13.7617 8.16983 13.7617 8.58984C13.7617 9.00986 13.42 9.35156 13 9.35156Z" fill="#513CF3"/>
</g>
<defs>
<clipPath id="clip0_7_100">
<rect width="26" height="26" fill="white"/>
</clipPath>
</defs>
</svg>
