<svg width="183" height="50" viewBox="0 0 183 50" fill="none" xmlns="http://www.w3.org/2000/svg">
<path d="M0 25C0 15.6538 0 10.9808 2.00962 7.5C3.32614 5.21971 5.21971 3.32614 7.5 2.00962C10.9808 0 15.6538 0 25 0H166.333C167.881 0 168.655 0 169.307 0.0570796C176.559 0.691522 182.308 6.44096 182.943 13.6927C183 14.3451 183 15.1189 183 16.6667C183 19.7621 183 21.3098 182.886 22.6147C181.617 37.1181 170.118 48.617 155.615 49.8858C154.31 50 152.762 50 149.667 50H25C15.6538 50 10.9808 50 7.5 47.9904C5.21971 46.6739 3.32614 44.7803 2.00962 42.5C0 39.0192 0 34.3462 0 25Z" fill="#840404"/>
</svg>
