<svg width="40" height="40" viewBox="0 0 40 40" fill="none" xmlns="http://www.w3.org/2000/svg">
<rect x="0.5" y="39.5" width="39" height="39" rx="11.5" transform="rotate(-90 0.5 39.5)" stroke="#840404"/>
<path d="M12.2826 19.7139L15.9693 21.0899L17.3963 25.6791C17.4876 25.973 17.847 26.0816 18.0856 25.8866L20.1406 24.2113C20.356 24.0357 20.6629 24.027 20.888 24.1904L24.5946 26.8815C24.8498 27.0669 25.2113 26.9271 25.2753 26.6187L27.9906 13.5579C28.0604 13.221 27.7294 12.94 27.4087 13.0641L12.2783 18.9009C11.9049 19.0449 11.9082 19.5736 12.2826 19.7139ZM17.1663 20.3574L24.3716 15.9197C24.5011 15.8402 24.6343 16.0153 24.5231 16.1184L18.5767 21.6459C18.3677 21.8404 18.2328 22.1008 18.1947 22.3834L17.9921 23.8846C17.9653 24.085 17.6837 24.1049 17.6284 23.9109L16.8494 21.1736C16.7602 20.8614 16.8902 20.5279 17.1663 20.3574Z" fill="#840404"/>
</svg>
