<svg width="40" height="40" viewBox="0 0 40 40" fill="none" xmlns="http://www.w3.org/2000/svg">
<rect x="0.5" y="39.5" width="39" height="39" rx="11.5" transform="rotate(-90 0.5 39.5)" stroke="#E1DEFC" stroke-opacity="0.32"/>
<path d="M12.2826 19.7144L15.9693 21.0904L17.3963 25.6795C17.4876 25.9735 17.847 26.0821 18.0856 25.8871L20.1406 24.2118C20.356 24.0362 20.6629 24.0275 20.888 24.1909L24.5946 26.8819C24.8498 27.0674 25.2113 26.9276 25.2753 26.6192L27.9906 13.5584C28.0604 13.2215 27.7294 12.9405 27.4087 13.0646L12.2783 18.9014C11.9049 19.0454 11.9082 19.5741 12.2826 19.7144ZM17.1663 20.3579L24.3716 15.9202C24.5011 15.8407 24.6343 16.0158 24.5231 16.1189L18.5767 21.6464C18.3677 21.8409 18.2328 22.1013 18.1947 22.3839L17.9921 23.885C17.9653 24.0855 17.6837 24.1054 17.6284 23.9114L16.8494 21.1741C16.7602 20.8618 16.8902 20.5283 17.1663 20.3579Z" fill="white"/>
</svg>
