<svg width="448" height="87" viewBox="0 0 448 87" fill="none" xmlns="http://www.w3.org/2000/svg">
<path d="M448 66.9231C448 71.6447 448 74.0055 447.473 75.9406C446.077 81.0697 442.07 85.0766 436.941 86.4731C435.006 87 432.645 87 427.923 87H67.402C51.6633 87 43.7939 87 37.3436 85.2438C20.2466 80.5887 6.89026 67.2324 2.23523 50.1354C0.479004 43.6851 0.479004 35.8157 0.479004 20.0769C0.479004 15.3553 0.479004 12.9945 1.00586 11.0594C2.40237 5.93027 6.40927 1.92338 11.5384 0.526871C13.4735 0 15.8343 0 20.5559 0H381.077C396.816 0 404.685 0 411.135 1.75623C428.232 6.41125 441.589 19.7676 446.244 36.8646C448 43.3149 448 51.1843 448 66.9231Z" fill="#FFCF3C"/>
</svg>
