<svg width="183" height="50" viewBox="0 0 183 50" fill="none" xmlns="http://www.w3.org/2000/svg">
<path d="M158 1.5H16.6667C15.0872 1.5 14.3941 1.50144 13.8234 1.55137C7.29686 2.12237 2.12238 7.29686 1.55138 13.8234C1.50143 14.3941 1.5 15.0872 1.5 16.6667C1.5 19.7938 1.50143 21.2608 1.60844 22.4839C2.81389 36.2622 13.7378 47.1861 27.5161 48.3915C28.7392 48.4986 30.2062 48.5 33.3333 48.5H158C162.701 48.5 166.126 48.4986 168.814 48.2549C171.482 48.0131 173.276 47.5424 174.75 46.6913C176.802 45.5065 178.506 43.8023 179.691 41.75C180.542 40.276 181.013 38.4817 181.255 35.8141C181.499 33.1259 181.5 29.7007 181.5 25C181.5 20.2993 181.499 16.8741 181.255 14.1859C181.013 11.5183 180.542 9.72403 179.691 8.25C178.506 6.19774 176.802 4.49353 174.75 3.30866C173.276 2.45762 171.482 1.98685 168.814 1.74508C166.126 1.50144 162.701 1.5 158 1.5Z" fill="white" stroke="#840404" stroke-width="3"/>
</svg>
