<svg width="40" height="40" viewBox="0 0 40 40" fill="none" xmlns="http://www.w3.org/2000/svg">
<rect x="0.5" y="39.5" width="39" height="39" rx="11.5" transform="rotate(-90 0.5 39.5)" stroke="#E1DEFC" stroke-opacity="0.32"/>
<g clip-path="url(#clip0_7_285)">
<path fill-rule="evenodd" clip-rule="evenodd" d="M25.9689 14.0061C24.3902 12.4255 22.2906 11.5546 20.0538 11.5537C15.4447 11.5537 11.6936 15.3048 11.6917 19.9151C11.6911 21.3889 12.0761 22.8275 12.8079 24.0956L11.6216 28.4287L16.0545 27.2659C17.2759 27.9322 18.651 28.2833 20.0504 28.2837H20.0539C24.6625 28.2837 28.4141 24.5323 28.4158 19.9218C28.4168 17.6874 27.5478 15.5866 25.9689 14.0061ZM20.0538 26.8715H20.051C18.8039 26.871 17.5808 26.5358 16.5135 25.9027L16.2598 25.752L13.6293 26.4421L14.3314 23.8774L14.1661 23.6144C13.4704 22.5078 13.103 21.2288 13.1036 19.9156C13.105 16.0836 16.223 12.966 20.0566 12.966C21.913 12.9666 23.6581 13.6905 24.9703 15.0042C26.2825 16.3179 27.0047 18.0641 27.0041 19.9213C27.0024 23.7536 23.8847 26.8715 20.0538 26.8715ZM23.8662 21.6661C23.6573 21.5615 22.63 21.0562 22.4384 20.9864C22.2471 20.9166 22.1076 20.8819 21.9684 21.091C21.8291 21.3001 21.4287 21.7708 21.3068 21.9101C21.1848 22.0496 21.0631 22.0671 20.8541 21.9625C20.6451 21.8579 19.972 21.6372 19.1738 20.9254C18.5528 20.3714 18.1335 19.6872 18.0115 19.4781C17.8898 19.2688 18.0105 19.1666 18.1032 19.0517C18.3294 18.7708 18.5558 18.4763 18.6255 18.337C18.6952 18.1975 18.6603 18.0755 18.608 17.9709C18.5558 17.8664 18.138 16.838 17.9639 16.4195C17.7942 16.0122 17.6221 16.0672 17.4937 16.0609C17.372 16.0548 17.2326 16.0535 17.0933 16.0535C16.954 16.0535 16.7277 16.1058 16.5361 16.315C16.3446 16.5242 15.8049 17.0296 15.8049 18.0581C15.8049 19.0865 16.5536 20.08 16.658 20.2195C16.7625 20.3589 18.1314 22.4693 20.2273 23.3742C20.7258 23.5897 21.1149 23.7181 21.4184 23.8145C21.919 23.9735 22.3744 23.951 22.7344 23.8973C23.1359 23.8372 23.9705 23.3918 24.1448 22.9038C24.3188 22.4157 24.3188 21.9974 24.2665 21.9101C24.2144 21.823 24.075 21.7708 23.8662 21.6661Z" fill="white"/>
</g>
<defs>
<clipPath id="clip0_7_285">
<rect width="18" height="18" fill="white" transform="translate(11 11)"/>
</clipPath>
</defs>
</svg>
