<svg width="30" height="26" viewBox="0 0 30 26" fill="none" xmlns="http://www.w3.org/2000/svg">
<g clip-path="url(#clip0_7_23)">
<path d="M19.3945 18.9041L27.2021 13.7563L19.3945 8.6084V18.9041ZM21.1523 11.8729L24.0088 13.7563L21.1523 15.6396V11.8729Z" fill="#FFCF3C"/>
<path d="M15.1674 4.02215C14.885 3.8861 10.7988 0.572266 4.39453 0.572266H3.51562V3.54818C1.65117 3.82586 0.404355 4.18733 0 4.28055V25.4284C0.614707 25.3453 6.7899 23.1562 14.7868 25.1553L15 25.2087L15.2132 25.1553C23.2192 23.1538 29.3825 25.3449 30 25.4284V4.28055C29.5928 4.22641 23.2263 2.12031 15.1674 4.02215ZM1.75781 23.1989V5.66172C2.33918 5.53147 2.92658 5.41949 3.51562 5.32615V21.666H4.39453C6.28939 21.666 8.18801 21.9985 9.97307 22.6268C7.22625 22.4414 4.45564 22.6318 1.75781 23.1989ZM14.1211 22.6722C11.4899 21.0397 8.39631 20.0819 5.27344 19.9297V2.35375C10.5645 2.63834 13.8506 5.3026 14.1211 5.43719V22.6722ZM28.2422 23.1989C24.1761 22.3441 19.9449 22.3441 15.8789 23.1989V5.66172C19.9378 4.75211 24.1833 4.75211 28.2422 5.66172V23.1989Z" fill="#FFCF3C"/>
</g>
<defs>
<clipPath id="clip0_7_23">
<rect width="30" height="26" fill="white"/>
</clipPath>
</defs>
</svg>
