<svg width="40" height="40" viewBox="0 0 40 40" fill="none" xmlns="http://www.w3.org/2000/svg">
<rect x="0.5" y="39.5" width="39" height="39" rx="11.5" transform="rotate(-90 0.5 39.5)" stroke="#840404"/>
<g clip-path="url(#clip0_39_2)">
<path d="M27.8574 23.5782C27.8144 23.5062 27.5484 22.9282 26.2683 21.7401C24.9282 20.496 25.1082 20.698 26.7223 18.5469C27.7054 17.2368 28.0984 16.4367 27.9754 16.0947C27.8584 15.7687 27.1353 15.8547 27.1353 15.8547L24.7312 15.8687C24.7312 15.8687 24.5532 15.8447 24.4201 15.9237C24.2911 16.0017 24.2081 16.1817 24.2081 16.1817C24.2081 16.1817 23.8271 17.1958 23.3191 18.0578C22.248 19.877 21.819 19.973 21.6439 19.86C21.2369 19.5969 21.3389 18.8019 21.3389 18.2378C21.3389 16.4747 21.6059 15.7397 20.8179 15.5496C20.5559 15.4866 20.3638 15.4446 19.6948 15.4376C18.8367 15.4286 18.1097 15.4406 17.6986 15.6416C17.4246 15.7757 17.2136 16.0747 17.3426 16.0917C17.5016 16.1127 17.8617 16.1887 18.0527 16.4487C18.2997 16.7837 18.2907 17.5378 18.2907 17.5378C18.2907 17.5378 18.4327 19.6129 17.9597 19.871C17.6346 20.048 17.1896 19.6869 16.2345 18.0358C15.7455 17.1908 15.3755 16.2557 15.3755 16.2557C15.3755 16.2557 15.3045 16.0817 15.1775 15.9887C15.0234 15.8757 14.8074 15.8397 14.8074 15.8397L12.5213 15.8537C12.5213 15.8537 12.1782 15.8637 12.0522 16.0127C11.9402 16.1457 12.0432 16.4197 12.0432 16.4197C12.0432 16.4197 13.8334 20.607 15.8595 22.7182C17.7186 24.6533 19.8288 24.5263 19.8288 24.5263H20.7849C20.7849 24.5263 21.0739 24.4943 21.2209 24.3353C21.3569 24.1893 21.3519 23.9153 21.3519 23.9153C21.3519 23.9153 21.3329 22.6322 21.929 22.4432C22.516 22.2571 23.2701 23.6832 24.0691 24.2323C24.6732 24.6473 25.1322 24.5563 25.1322 24.5563L27.2694 24.5263C27.2694 24.5263 28.3874 24.4573 27.8574 23.5782Z" fill="#840404"/>
</g>
<defs>
<clipPath id="clip0_39_2">
<rect width="16" height="16" fill="white" transform="translate(12 12)"/>
</clipPath>
</defs>
</svg>
