<svg width="26" height="26" viewBox="0 0 26 26" fill="none" xmlns="http://www.w3.org/2000/svg">
<g clip-path="url(#clip0_7_16)">
<path d="M22.0851 3.91142L18.5104 4.82608L15.3933 2.85156L15.1586 6.534L12.3172 8.88838L14.9739 9.94289L0 24.9166L1.0799 25.9965L16.0538 11.0228L17.1081 13.6795L19.4625 10.8381L23.1449 10.6034L21.1704 7.48615L22.0851 3.91142ZM18.7073 9.35573L17.5769 10.7201L16.9232 9.07326L15.2766 8.41985L16.6408 7.28937L16.7534 5.52135L18.2501 6.46933L19.9664 6.03015L19.5272 7.7464L20.4752 9.24306L18.7073 9.35573Z" fill="#EF584E"/>
<path d="M18.2217 0H19.7489V2.4613H18.2217V0Z" fill="#EF584E"/>
<path d="M23.5391 6.43262H26.0002V7.96002H23.5391V6.43262Z" fill="#EF584E"/>
<path d="M23.0493 1.85086L24.8953 0.00488281L25.9752 1.08498L24.1294 2.93076L23.0493 1.85086Z" fill="#EF584E"/>
</g>
<defs>
<clipPath id="clip0_7_16">
<rect width="26" height="26" fill="white"/>
</clipPath>
</defs>
</svg>
